<?xml version="1.0" standalone="no"?>
<!DOCTYPE svg PUBLIC "-//W3C//DTD SVG 20010904//EN"
 "http://www.w3.org/TR/2001/REC-SVG-20010904/DTD/svg10.dtd">
<svg version="1.0" xmlns="http://www.w3.org/2000/svg"
 width="480.000000pt" height="640.000000pt" viewBox="0 0 480.000000 640.000000"
 preserveAspectRatio="xMidYMid meet">
<metadata>
Created by potrace 1.16, written by Peter Selinger 2001-2019
</metadata>
<g transform="translate(0.000000,640.000000) scale(0.100000,-0.100000)"
fill="#000000" stroke="none">
<path d="M1891 4154 c-15 -19 -21 -41 -21 -75 0 -41 4 -51 25 -65 46 -30 120
4 130 60 8 42 -6 71 -45 91 -42 22 -66 19 -89 -11z"/>
<path d="M3430 4113 c-49 -26 -67 -61 -51 -101 16 -39 58 -59 149 -72 74 -10
151 -2 177 20 27 22 18 66 -18 94 -82 62 -198 89 -257 59z"/>
<path d="M2445 4060 c-101 -10 -446 -99 -470 -121 -14 -13 -25 -15 -37 -8 -28
16 -268 -19 -295 -43 -17 -16 -25 -18 -43 -8 -26 14 -79 -1 -105 -30 -10 -11
-30 -20 -44 -20 -56 0 -265 -152 -379 -276 -80 -87 -131 -168 -144 -229 -18
-86 35 -200 125 -266 58 -44 160 -89 198 -89 18 0 40 -6 48 -14 23 -20 116
-46 131 -36 9 5 18 3 24 -5 22 -29 341 -84 637 -109 146 -13 166 -13 201 1 36
15 43 14 74 -1 27 -12 65 -16 168 -16 118 0 136 2 159 20 30 24 48 25 88 5 27
-14 45 -14 182 0 188 19 213 24 227 40 8 10 26 12 58 8 56 -6 229 33 317 71
139 62 250 168 318 305 34 68 42 96 45 152 4 59 0 76 -25 131 -38 80 -123 165
-238 237 l-86 54 -30 -22 -29 -22 -19 43 c-12 28 -29 48 -47 57 -73 34 -147
53 -236 62 -64 6 -151 26 -260 58 -224 67 -366 86 -513 71z"/>
<path d="M941 2934 c-28 -20 -51 -72 -51 -117 0 -105 66 -143 167 -98 95 44
98 157 5 209 -47 26 -89 28 -121 6z"/>
<path d="M2777 2639 c-28 -17 -50 -70 -50 -126 0 -93 44 -126 137 -102 64 16
96 55 96 118 0 39 -5 52 -27 73 -16 14 -38 31 -50 37 -27 14 -82 14 -106 0z"/>
<path d="M3983 1404 c-4 -11 16 -38 63 -85 l68 -69 -62 -63 c-34 -34 -62 -70
-62 -80 0 -33 35 -17 97 45 l63 62 63 -62 c34 -34 70 -62 80 -62 33 0 17 35
-45 97 l-61 62 61 67 c65 70 74 90 45 101 -12 5 -34 -12 -80 -63 l-62 -69 -68
68 c-70 69 -89 79 -100 51z"/>
<path d="M2412 570 c-43 -18 -52 -88 -16 -124 21 -22 77 -20 97 2 22 25 22 85
0 104 -25 22 -54 28 -81 18z"/>
</g>
</svg>
